<?xml version="1.0" encoding="UTF-8" standalone="no"?>
<svg
   xmlns:dc="http://purl.org/dc/elements/1.1/"
   xmlns:cc="http://creativecommons.org/ns#"
   xmlns:rdf="http://www.w3.org/1999/02/22-rdf-syntax-ns#"
   xmlns:svg="http://www.w3.org/2000/svg"
   xmlns="http://www.w3.org/2000/svg"
   xmlns:sodipodi="http://sodipodi.sourceforge.net/DTD/sodipodi-0.dtd"
   xmlns:inkscape="http://www.inkscape.org/namespaces/inkscape"
   width="210mm"
   height="180mm"
   viewBox="0 0 210 297"
   version="1.1"
   id="svg5124"
   inkscape:version="1.0 (4035a4fb49, 2020-05-01)"
   sodipodi:docname="comments.svg">
  <defs
     id="defs5118">
    <clipPath
       id="clipPath122"
       clipPathUnits="userSpaceOnUse">
      <path
         id="path120"
         d="M 0,560 H 1366 V 0 H 0 Z" />
    </clipPath>
    <clipPath
       id="clipPath130"
       clipPathUnits="userSpaceOnUse">
      <path
         id="path128"
         d="M 526.233,392.88 H 817.742 V 198.18 H 526.233 Z" />
    </clipPath>
    <clipPath
       id="clipPath150"
       clipPathUnits="userSpaceOnUse">
      <path
         id="path148"
         d="M 550.853,397.488 H 803.818 V 185.998 H 550.853 Z" />
    </clipPath>
    <clipPath
       id="clipPath170"
       clipPathUnits="userSpaceOnUse">
      <path
         id="path168"
         d="M 577.55,384.038 H 785.209 V 180.087 H 577.55 Z" />
    </clipPath>
    <clipPath
       id="clipPath234"
       clipPathUnits="userSpaceOnUse">
      <path
         id="path232"
         d="M 0,560 H 1366 V 0 H 0 Z" />
    </clipPath>
    <clipPath
       id="clipPath242"
       clipPathUnits="userSpaceOnUse">
      <path
         id="path240"
         d="M 972.461,402.686 H 1240.16 V 169.638 H 972.461 Z" />
    </clipPath>
    <clipPath
       id="clipPath262"
       clipPathUnits="userSpaceOnUse">
      <path
         id="path260"
         d="M 972.706,419.095 H 1237.15 V 182.606 H 972.706 Z" />
    </clipPath>
    <clipPath
       id="clipPath278"
       clipPathUnits="userSpaceOnUse">
      <path
         id="path276"
         d="M 978.369,397.807 H 1214.4 V 213.61 H 978.369 Z" />
    </clipPath>
    <clipPath
       id="clipPath282"
       clipPathUnits="userSpaceOnUse">
      <path
         id="path280"
         d="m 1044.29,397.807 h 149.46 v -83.768 h -149.46 z" />
    </clipPath>
    <clipPath
       id="clipPath286"
       clipPathUnits="userSpaceOnUse">
      <path
         id="path284"
         d="m 1043.64,374.402 h 87.39 v -60.775 h -87.39 z" />
    </clipPath>
  </defs>
  <sodipodi:namedview
     id="base"
     pagecolor="#ffffff"
     bordercolor="#666666"
     borderopacity="1.0"
     inkscape:pageopacity="0.0"
     inkscape:pageshadow="2"
     inkscape:zoom="0.35"
     inkscape:cx="400"
     inkscape:cy="560"
     inkscape:document-units="mm"
     inkscape:current-layer="layer1"
     inkscape:document-rotation="0"
     showgrid="false"
     inkscape:window-width="1920"
     inkscape:window-height="1018"
     inkscape:window-x="0"
     inkscape:window-y="34"
     inkscape:window-maximized="1" />
  <metadata
     id="metadata5121">
    <rdf:RDF>
      <cc:Work
         rdf:about="">
        <dc:format>image/svg+xml</dc:format>
        <dc:type
           rdf:resource="http://purl.org/dc/dcmitype/StillImage" />
        <dc:title />
      </cc:Work>
    </rdf:RDF>
  </metadata>
  <g
     inkscape:label="Layer 1"
     inkscape:groupmode="layer"
     id="layer1">
    <g
       id="g228"
       transform="matrix(1.1899863,0,0,-1.1899863,-1210.0333,499.58876)">
      <g
         clip-path="url(#clipPath234)"
         id="g230">
        <g
           id="g236">
          <g
             id="g238" />
          <g
             id="g254">
            <g
               id="g252"
               opacity="0.800003"
               clip-path="url(#clipPath242)">
              <g
                 id="g246"
                 transform="translate(1196.3496,379.5293)">
                <path
                   id="path244"
                   style="fill:#fffbcc;fill-opacity:1;fill-rule:nonzero;stroke:none"
                   d="m 0,0 c -6.839,3.96 -56.602,9.854 -63.821,11.878 -29.422,8.254 -84.824,28.789 -143.812,-25.164 -34.089,-31.178 -5.578,-88.177 17.141,-132.279 30.558,-59.32 111.248,-81.232 136.404,-48.878 C 0.518,-124.216 101.226,-58.616 0,0" />
              </g>
              <g
                 id="g250"
                 transform="translate(1196.3496,379.5293)">
                <path
                   id="path248"
                   style="fill:none;stroke:#f4f1bb;stroke-width:1;stroke-linecap:butt;stroke-linejoin:miter;stroke-miterlimit:10;stroke-dasharray:none;stroke-opacity:1"
                   d="m 0,0 c -6.839,3.96 -56.602,9.854 -63.821,11.878 -29.422,8.254 -84.824,28.789 -143.812,-25.164 -34.089,-31.178 -5.578,-88.177 17.141,-132.279 30.558,-59.32 111.248,-81.232 136.404,-48.878 C 0.518,-124.216 101.226,-58.616 0,0 Z" />
              </g>
            </g>
          </g>
        </g>
        <g
           id="g256">
          <g
             id="g258" />
          <g
             id="g270">
            <g
               id="g268"
               opacity="0.699997"
               clip-path="url(#clipPath262)">
              <g
                 id="g266"
                 transform="translate(975.123,258.8535)">
                <path
                   id="path264"
                   style="fill:#ed6a5a;fill-opacity:1;fill-rule:nonzero;stroke:none"
                   d="M 0,0 C -8.669,40.43 6.42,82.335 38.254,108.723 93.262,154.321 206.03,210.224 249.877,77.146 289.866,-44.225 222.064,-60.266 178.034,-59.03 c -21.5,0.602 -42.885,-2.778 -63.18,-9.901 C 78.191,-81.799 18.741,-87.394 0,0" />
              </g>
            </g>
          </g>
        </g>
        <g
           id="g272">
          <g
             id="g274" />
          <g
             id="g354">
            <g
               id="g352"
               opacity="0.649994"
               clip-path="url(#clipPath278)">
              <g
                 id="g290"
                 transform="translate(1051.3096,283.9263)">
                <path
                   id="path288"
                   style="fill:#1a1a1a;fill-opacity:1;fill-rule:nonzero;stroke:none"
                   d="m 0,0 c -0.067,-14.58 -9.157,-28.205 -22.958,-33.264 -13.93,-5.108 -29.705,-0.667 -39.09,10.766 -9.369,11.416 -10.492,28.095 -2.96,40.748 7.501,12.601 22.497,19.44 36.921,16.473 C -13.75,31.774 -2.695,19.886 -0.407,5.487 -0.119,3.673 -0.008,1.835 0,0 0.01,-1.93 3.01,-1.934 3,0 2.927,15.933 -7.021,30.528 -22.006,36.1 -36.923,41.647 -54.25,36.805 -64.271,24.492 -74.41,12.036 -75.835,-5.927 -67.598,-19.765 c 8.187,-13.753 24.437,-21.039 40.143,-17.885 15.438,3.1 27.676,16.164 29.992,31.704 C 2.831,-3.974 2.991,-1.994 3,0 3.01,1.931 0.01,1.933 0,0" />
              </g>
              <g
                 id="g294"
                 transform="translate(1211.4023,283.0366)">
                <path
                   id="path292"
                   style="fill:#1a1a1a;fill-opacity:1;fill-rule:nonzero;stroke:none"
                   d="m 0,0 c -0.067,-12.732 -7.985,-24.648 -20.044,-29.077 -12.175,-4.47 -25.947,-0.616 -34.174,9.361 -8.241,9.995 -9.217,24.639 -2.595,35.722 6.568,10.991 19.683,16.964 32.278,14.352 C -12.007,27.761 -2.361,17.388 -0.356,4.8 -0.104,3.213 -0.009,1.605 0,0 0.01,-1.93 3.01,-1.934 3,0 2.925,14.091 -5.849,26.965 -19.092,31.912 -32.303,36.847 -47.704,32.529 -56.545,21.584 -65.461,10.548 -66.703,-5.3 -59.402,-17.52 c 7.256,-12.147 21.619,-18.56 35.5,-15.765 13.635,2.746 24.448,14.3 26.491,28.027 C 2.849,-3.514 2.99,-1.763 3,0 3.01,1.931 0.01,1.933 0,0" />
              </g>
              <g
                 id="g298"
                 transform="translate(1036.2139,302.3018)">
                <path
                   id="path296"
                   style="fill:#1a1a1a;fill-opacity:1;fill-rule:nonzero;stroke:none"
                   d="m 0,0 3.419,-9.498 c 0.164,-0.456 0.328,-0.912 0.492,-1.367 0.274,-0.762 1.021,-1.275 1.845,-1.048 0.736,0.202 1.323,1.079 1.048,1.845 L 3.385,-0.57 C 3.221,-0.114 3.057,0.342 2.893,0.797 2.618,1.559 1.871,2.072 1.048,1.845 0.312,1.643 -0.276,0.766 0,0" />
              </g>
              <g
                 id="g302"
                 transform="translate(1050.9131,280.8745)">
                <path
                   id="path300"
                   style="fill:#1a1a1a;fill-opacity:1;fill-rule:nonzero;stroke:none"
                   d="m 0,0 c -1.387,-0.833 -2.932,-1.263 -4.774,-1.665 -4.588,-0.998 -9.415,-0.649 -13.943,0.483 -1.369,0.342 -2.731,0.965 -4.064,0.153 -1.154,-0.702 -1.578,-2.026 -1.313,-3.301 0.252,-1.207 0.715,-2.41 1.181,-3.546 1.258,-3.071 3.054,-5.955 5.729,-7.982 3.871,-2.933 8.75,-3.082 13.273,-1.744 1.848,0.547 1.061,3.442 -0.797,2.893 -3.451,-1.021 -7.104,-1.143 -10.207,0.901 -2.326,1.533 -3.921,4.015 -5.017,6.526 -0.444,1.019 -0.802,2.079 -1.105,3.148 -0.032,0.115 -0.16,0.563 -0.158,0.565 -0.011,-0.01 1.02,-0.335 1.257,-0.397 1.399,-0.367 2.818,-0.658 4.25,-0.866 3.969,-0.575 8.011,-0.568 11.936,0.325 1.781,0.405 3.686,0.968 5.266,1.917 C 3.167,-1.598 1.661,0.997 0,0" />
              </g>
              <g
                 id="g306"
                 transform="translate(1162.1426,295.9336)">
                <path
                   id="path304"
                   style="fill:#1a1a1a;fill-opacity:1;fill-rule:nonzero;stroke:none"
                   d="m 0,0 v -8.572 -1.212 c 0,-0.784 0.69,-1.536 1.5,-1.5 0.813,0.036 1.5,0.659 1.5,1.5 V -1.212 0 C 3,0.785 2.311,1.536 1.5,1.5 0.687,1.463 0,0.841 0,0" />
              </g>
              <g
                 id="g310"
                 transform="translate(1149.2246,277.626)">
                <path
                   id="path308"
                   style="fill:#1a1a1a;fill-opacity:1;fill-rule:nonzero;stroke:none"
                   d="m 0,0 c 3.763,-2.344 8.989,-2.768 13.27,-2.453 1.017,0.075 2.031,0.201 3.039,0.36 0.59,0.094 1.179,0.203 1.764,0.327 0.198,0.043 1.799,0.262 1.851,0.444 -0.026,-0.09 -0.358,0.199 -0.32,0.227 -0.05,-0.037 -0.072,-0.264 -0.095,-0.322 -0.072,-0.175 -0.114,-0.366 -0.174,-0.545 -0.16,-0.483 -0.375,-1.071 -0.541,-1.468 -0.853,-2.039 -2.177,-4.22 -4.015,-5.64 -2.796,-2.159 -6.269,-2.06 -9.5,-1.037 -1.844,0.584 -2.634,-2.312 -0.798,-2.893 3.561,-1.127 7.458,-1.243 10.78,0.66 2.535,1.452 4.425,3.865 5.694,6.458 0.557,1.138 1.028,2.324 1.405,3.534 0.648,2.075 -0.547,4.286 -2.952,3.963 C 18.104,1.439 16.818,1.006 15.511,0.8 14.362,0.619 13.198,0.518 12.036,0.481 10.261,0.425 8.473,0.516 6.725,0.841 5.351,1.097 3.996,1.472 2.7,1.997 2.315,2.152 2.974,1.872 2.624,2.029 2.517,2.078 2.409,2.126 2.303,2.176 2.159,2.244 2.017,2.314 1.877,2.388 1.755,2.453 1.632,2.518 1.515,2.591 -0.129,3.614 -1.637,1.02 0,0" />
              </g>
              <g
                 id="g314"
                 transform="translate(1003.3369,248.7129)">
                <path
                   id="path312"
                   style="fill:#1a1a1a;fill-opacity:1;fill-rule:nonzero;stroke:none"
                   d="m 0,0 c -0.95,-3.592 -1.543,-7.308 -1.947,-10.996 -0.703,-6.414 -0.869,-13.6 2.185,-19.477 0.891,-1.714 3.481,-0.198 2.591,1.515 -2.835,5.452 -2.418,12.383 -1.738,18.302 0.38,3.307 0.95,6.636 1.802,9.858 C 3.387,1.07 0.494,1.867 0,0" />
              </g>
              <g
                 id="g318"
                 transform="translate(1026.2402,248.3486)">
                <path
                   id="path316"
                   style="fill:#1a1a1a;fill-opacity:1;fill-rule:nonzero;stroke:none"
                   d="m 0,0 c 0.004,-2.926 0.329,-5.868 0.751,-8.758 0.8,-5.482 2.221,-11.075 5.03,-15.895 1.599,-2.743 3.705,-5.172 6.398,-6.883 1.634,-1.038 3.14,1.557 1.513,2.591 -4.434,2.817 -6.81,7.96 -8.275,12.822 C 4.118,-11.815 3.409,-7.331 3.116,-2.846 3.054,-1.899 3.001,-0.949 3,0 2.998,1.931 -0.002,1.934 0,0" />
              </g>
              <g
                 id="g322"
                 transform="translate(1201.0771,257.293)">
                <path
                   id="path320"
                   style="fill:#1a1a1a;fill-opacity:1;fill-rule:nonzero;stroke:none"
                   d="m 0,0 c 1.869,-9.611 2.81,-19.69 2.255,-29.468 -0.239,-4.212 -0.822,-8.451 -2.348,-12.407 -0.695,-1.803 2.204,-2.583 2.893,-0.798 2.662,6.904 2.782,14.777 2.504,22.081 C 5.076,-14.613 4.426,-8.646 3.498,-2.736 3.313,-1.557 3.121,-0.376 2.893,0.798 2.524,2.69 -0.367,1.89 0,0" />
              </g>
              <g
                 id="g326"
                 transform="translate(1167.751,250.8193)">
                <path
                   id="path324"
                   style="fill:#1a1a1a;fill-opacity:1;fill-rule:nonzero;stroke:none"
                   d="m 0,0 c -0.002,-2.577 -0.25,-5.179 -0.609,-7.727 -0.717,-5.082 -1.941,-10.29 -4.426,-14.818 -1.389,-2.529 -3.199,-4.839 -5.656,-6.4 -1.626,-1.033 -0.122,-3.63 1.513,-2.591 4.887,3.105 7.681,8.456 9.407,13.823 1.519,4.717 2.299,9.69 2.64,14.626 C 2.939,-2.061 2.999,-1.029 3,0 3.002,1.931 0.002,1.934 0,0" />
              </g>
              <g
                 id="g338">
                <g
                   id="g328" />
                <g
                   id="g336">
                  <g
                     id="g334"
                     opacity="0.899994"
                     clip-path="url(#clipPath282)">
                    <g
                       id="g332"
                       transform="translate(1142.0791,397.7158)">
                      <path
                         id="path330"
                         style="fill:#1a1a1a;fill-opacity:1;fill-rule:nonzero;stroke:none"
                         d="m 0,0 c -16.062,0.751 -34.149,-3.059 -46.004,-14.653 -2.676,-2.618 -4.963,-5.667 -6.559,-9.059 l 1.294,0.743 c -12.279,0.499 -25.549,-2.161 -35.53,-9.689 -3.918,-2.956 -7.343,-6.676 -9.294,-11.229 -2.008,-4.685 -2.277,-9.973 -0.549,-14.796 2.362,-6.588 7.753,-11.804 13.756,-15.192 -0.179,0.684 -0.359,1.368 -0.538,2.052 -1.68,-2.344 -3.63,-4.724 -6.143,-6.193 -1.401,-0.818 -2.01,-2.695 -0.477,-3.779 0.898,-0.636 2.302,-0.908 3.356,-1.179 6.296,-1.614 12.968,-0.583 17.403,4.494 -0.486,-0.128 -0.973,-0.257 -1.459,-0.386 14.267,-3.835 30.551,-2.849 43.762,4.056 3.069,1.605 5.945,3.582 8.498,5.926 -0.487,-0.128 -0.973,-0.257 -1.459,-0.386 12.064,-3.246 24.901,-3.589 37.104,-0.883 -0.487,0.129 -0.974,0.257 -1.46,0.386 3.897,-5.042 9.874,-7.397 16.161,-7.09 2.382,0.115 4.76,0.543 7.046,1.216 1.316,0.388 2.738,0.973 2.668,2.615 -0.072,1.675 -1.815,2.206 -2.899,3.157 -2.335,2.048 -4.206,4.637 -5.862,7.249 -0.178,-0.684 -0.358,-1.368 -0.538,-2.052 6.581,3.362 12.707,8.516 16.253,15.083 3.015,5.583 3.943,12.073 2.427,18.248 C 47.935,-19.023 36.668,-10.429 25.535,-5.698 17.445,-2.259 8.766,-0.457 0,0 c -1.93,0.1 -1.924,-2.9 0,-3 13.467,-0.701 27.652,-4.771 37.992,-13.771 4.052,-3.528 7.568,-7.896 9.369,-13.012 1.858,-5.272 1.764,-11.017 -0.406,-16.191 -3.006,-7.171 -9.393,-12.635 -16.191,-16.108 -0.704,-0.36 -0.954,-1.397 -0.538,-2.052 1.612,-2.545 3.427,-5.053 5.585,-7.163 0.639,-0.627 1.324,-1.213 2.054,-1.733 0.203,-0.145 0.749,-0.637 1.006,-0.629 0.442,0.968 0.414,1.341 -0.087,1.117 -0.126,-0.04 -0.252,-0.079 -0.378,-0.118 -1.139,-0.347 -2.299,-0.632 -3.47,-0.845 -2.795,-0.509 -5.742,-0.571 -8.514,0.103 -3.527,0.858 -6.392,2.9 -8.6,5.756 -0.326,0.423 -0.982,0.492 -1.459,0.386 -6.147,-1.364 -12.439,-1.89 -18.731,-1.657 -3.285,0.121 -6.564,0.445 -9.805,1 -1.331,0.228 -2.656,0.492 -3.973,0.792 -1.348,0.306 -3.234,1.281 -4.459,0.363 -1.864,-1.396 -3.532,-2.916 -5.542,-4.134 -2.15,-1.303 -4.418,-2.421 -6.761,-3.333 -5.218,-2.03 -10.758,-3.222 -16.337,-3.638 -6.957,-0.519 -13.962,0.082 -20.702,1.894 -0.491,0.132 -1.113,0.011 -1.459,-0.386 -3.643,-4.17 -8.898,-5.064 -14.111,-3.814 -0.85,0.204 -1.922,0.798 -2.778,0.838 -0.061,0.023 -0.124,0.046 -0.185,0.069 -0.321,-1.289 -0.178,-1.736 0.426,-1.34 0.271,0.076 0.562,0.319 0.788,0.471 0.568,0.379 1.106,0.81 1.619,1.26 1.835,1.611 3.394,3.558 4.813,5.538 0.468,0.652 0.117,1.682 -0.538,2.052 -4.961,2.801 -9.499,6.924 -11.884,12.176 -1.916,4.219 -2.014,8.991 -0.395,13.312 3.38,9.026 13.03,14.53 21.749,17.258 6.672,2.087 13.661,2.853 20.633,2.57 0.487,-0.02 1.083,0.291 1.295,0.743 6.196,13.161 21.587,19.473 35.146,21.533 C -9.929,-2.948 -4.947,-2.769 0,-3 1.93,-3.09 1.926,-0.09 0,0" />
                    </g>
                  </g>
                </g>
              </g>
              <g
                 id="g350">
                <g
                   id="g340" />
                <g
                   id="g348">
                  <g
                     id="g346"
                     opacity="0.899994"
                     clip-path="url(#clipPath286)">
                    <g
                       id="g344"
                       transform="translate(1087.335,374.4023)">
                      <path
                         id="path342"
                         style="fill:#1a1a1a;fill-opacity:1;fill-rule:nonzero;stroke:none"
                         d="m 0,0 c -11.877,-0.038 -24.341,-3.043 -33.764,-10.571 -7.628,-6.093 -12.315,-15.899 -8.676,-25.53 2.433,-6.441 7.724,-11.533 13.638,-14.873 l -0.539,2.053 c -1.68,-2.345 -3.629,-4.725 -6.142,-6.194 -1.401,-0.818 -2.01,-2.695 -0.477,-3.779 0.898,-0.635 2.301,-0.907 3.356,-1.178 6.296,-1.615 12.968,-0.584 17.403,4.493 -0.487,-0.129 -0.973,-0.257 -1.46,-0.385 10.275,-2.762 21.32,-2.925 31.669,-0.432 8.138,1.96 16.319,5.717 22.111,11.911 4.907,5.248 7.628,12.238 6.191,19.422 -1.469,7.332 -6.981,13.152 -13.11,17.048 C 21.29,-2.353 10.456,-0.033 0,0 c -1.931,0.006 -1.934,-2.994 0,-3 8.812,-0.028 17.799,-1.734 25.65,-5.853 5.996,-3.145 11.83,-7.95 14.1,-14.55 2.086,-6.069 0.541,-12.468 -3.409,-17.415 -4.786,-5.993 -11.994,-9.751 -19.231,-11.905 -10.646,-3.17 -22.26,-3.228 -32.973,-0.349 -0.491,0.132 -1.113,0.011 -1.459,-0.386 -3.643,-4.17 -8.898,-5.064 -14.111,-3.813 -0.85,0.203 -1.922,0.798 -2.778,0.837 -0.061,0.023 -0.124,0.046 -0.186,0.069 -0.32,-1.289 -0.177,-1.736 0.427,-1.34 0.271,0.076 0.562,0.319 0.788,0.471 0.568,0.379 1.106,0.811 1.619,1.26 1.835,1.611 3.394,3.558 4.813,5.538 0.468,0.653 0.117,1.683 -0.538,2.053 -8.791,4.964 -16.053,14.537 -12.462,24.98 2.997,8.715 11.925,14.287 20.194,17.189 C -13.272,-4.009 -6.647,-3.021 0,-3 1.93,-2.994 1.934,0.006 0,0" />
                    </g>
                  </g>
                </g>
              </g>
            </g>
          </g>
        </g>
      </g>
    </g>
  </g>
</svg>
