<?xml version="1.0" encoding="UTF-8" standalone="no"?>
<svg
   xmlns:dc="http://purl.org/dc/elements/1.1/"
   xmlns:cc="http://creativecommons.org/ns#"
   xmlns:rdf="http://www.w3.org/1999/02/22-rdf-syntax-ns#"
   xmlns:svg="http://www.w3.org/2000/svg"
   xmlns="http://www.w3.org/2000/svg"
   xmlns:sodipodi="http://sodipodi.sourceforge.net/DTD/sodipodi-0.dtd"
   xmlns:inkscape="http://www.inkscape.org/namespaces/inkscape"
   width="210mm"
   height="180mm"
   viewBox="0 0 210 297"
   version="1.1"
   id="svg2800"
   inkscape:version="1.0 (4035a4fb49, 2020-05-01)"
   sodipodi:docname="get-started.svg">
  <defs
     id="defs2794">
    <clipPath
       id="clipPath30"
       clipPathUnits="userSpaceOnUse">
      <path
         id="path28"
         d="M 0,560 H 1366 V 0 H 0 Z" />
    </clipPath>
    <clipPath
       id="clipPath46"
       clipPathUnits="userSpaceOnUse">
      <path
         id="path44"
         d="M 96.4481,395.681 H 394.875 V 201.379 H 96.4481 Z" />
    </clipPath>
    <clipPath
       id="clipPath62"
       clipPathUnits="userSpaceOnUse">
      <path
         id="path60"
         d="M 152.451,362.677 H 383.593 V 200.013 H 152.451 Z" />
    </clipPath>
  </defs>
  <sodipodi:namedview
     id="base"
     pagecolor="#ffffff"
     bordercolor="#666666"
     borderopacity="1.0"
     inkscape:pageopacity="0.0"
     inkscape:pageshadow="2"
     inkscape:zoom="0.35"
     inkscape:cx="400"
     inkscape:cy="560"
     inkscape:document-units="mm"
     inkscape:current-layer="layer1"
     inkscape:document-rotation="0"
     showgrid="false"
     inkscape:window-width="1920"
     inkscape:window-height="1018"
     inkscape:window-x="0"
     inkscape:window-y="34"
     inkscape:window-maximized="1" />
  <metadata
     id="metadata2797">
    <rdf:RDF>
      <cc:Work
         rdf:about="">
        <dc:format>image/svg+xml</dc:format>
        <dc:type
           rdf:resource="http://purl.org/dc/dcmitype/StillImage" />
        <dc:title />
      </cc:Work>
    </rdf:RDF>
  </metadata>
  <g
     inkscape:label="Layer 1"
     inkscape:groupmode="layer"
     id="layer1">
    <g
       id="g24"
       transform="matrix(1.1434301,0,0,-1.1434301,-176.49543,478.6343)">
      <g
         clip-path="url(#clipPath30)"
         id="g26">
        <g
           transform="translate(368,348)"
           id="g32">
          <path
             id="path34"
             style="fill:#fffbcc;fill-opacity:1;fill-rule:nonzero;stroke:none"
             d="m 0,0 c -17,20 -65.203,24.911 -72,29 -27.701,16.666 -78.58,39.137 -156.678,6.574 -45.132,-18.818 -48.456,-68.953 -39.139,-117.129 12.533,-64.8 68.433,-102.214 125.031,-87.197 C -51.589,-144.555 91.499,-107.646 0,0" />
        </g>
        <g
           transform="translate(368,348)"
           id="g36">
          <path
             id="path38"
             style="fill:none;stroke:#f4f1bb;stroke-width:1;stroke-linecap:butt;stroke-linejoin:miter;stroke-miterlimit:10;stroke-dasharray:none;stroke-opacity:1"
             d="m 0,0 c -17,20 -65.203,24.911 -72,29 -27.701,16.666 -78.58,39.137 -156.678,6.574 -45.132,-18.818 -48.456,-68.953 -39.139,-117.129 12.533,-64.8 68.433,-102.214 125.031,-87.197 C -51.589,-144.555 91.499,-107.646 0,0 Z" />
        </g>
        <g
           id="g40">
          <g
             id="g42" />
          <g
             id="g54">
            <g
               id="g52"
               opacity="0.699997"
               clip-path="url(#clipPath46)">
              <g
                 id="g50"
                 transform="translate(98.5903,279.6157)">
                <path
                   id="path48"
                   style="fill:#ed6a5a;fill-opacity:1;fill-rule:nonzero;stroke:none"
                   d="m 0,0 c -7.843,-39.499 2.875,-78.95 82.761,-69.998 0,0 321.277,-57.313 175.649,130.382 -12.502,16.114 -22.657,39.71 -41.35,47.865 C 198.41,116.384 190.915,125.337 75.563,94.685 34.33,83.729 8.309,41.846 0,0" />
              </g>
            </g>
          </g>
        </g>
        <g
           id="g56">
          <g
             id="g58" />
          <g
             id="g110">
            <g
               id="g108"
               opacity="0.649994"
               clip-path="url(#clipPath62)">
              <g
                 id="g66"
                 transform="translate(174.4351,307.0981)">
                <path
                   id="path64"
                   style="fill:#1a1a1a;fill-opacity:1;fill-rule:nonzero;stroke:none"
                   d="m 0,0 c -0.873,-4.4 -1.465,-8.871 -1.958,-13.327 -0.962,-8.713 -1.441,-17.609 -0.466,-26.342 0.526,-4.712 1.462,-9.394 3.461,-13.719 0.281,-0.611 1.092,-0.833 1.694,-0.69 4.059,0.966 8.103,2.004 12.132,3.089 5.73,1.543 11.766,2.96 17.149,5.52 1.434,0.681 3.132,1.69 2.338,3.524 -0.6,1.385 -1.188,2.747 -1.707,3.989 -2.589,6.198 -5.018,12.472 -7.139,18.846 -1.289,3.873 -2.481,7.794 -3.349,11.785 -0.584,2.685 -1.206,6.126 -0.819,8.551 0.301,1.888 -2.589,2.701 -2.893,0.797 -0.475,-2.975 -0.005,-6.024 0.572,-8.953 0.757,-3.846 1.862,-7.623 3.063,-11.351 2.262,-7.021 4.927,-13.916 7.775,-20.719 0.645,-1.54 1.293,-3.079 1.971,-4.605 -0.051,0.386 -0.101,0.771 -0.152,1.156 0.003,0.007 0.303,0.622 0.188,0.365 -0.036,-0.082 -0.43,-0.341 -0.02,-0.041 -0.256,-0.187 -0.534,-0.342 -0.814,-0.491 -0.853,-0.453 -1.395,-0.657 -2.266,-0.99 -2.418,-0.924 -4.897,-1.689 -7.376,-2.428 -5.245,-1.56 -10.543,-2.947 -15.852,-4.27 -1.199,-0.299 -2.397,-0.595 -3.599,-0.881 0.565,-0.23 1.13,-0.46 1.694,-0.69 -3.462,7.494 -3.695,16.445 -3.535,24.549 0.147,7.411 0.886,14.821 2.041,22.14 0.231,1.466 0.471,2.933 0.76,4.389 C 3.267,1.088 0.376,1.895 0,0" />
              </g>
              <g
                 id="g70"
                 transform="translate(207.813,333.1816)">
                <path
                   id="path68"
                   style="fill:#1a1a1a;fill-opacity:1;fill-rule:nonzero;stroke:none"
                   d="m 0,0 c -0.067,-10.948 -6.887,-21.19 -17.284,-24.945 -10.386,-3.751 -22.072,-0.463 -29.101,8.01 -7.114,8.575 -7.943,21.182 -2.23,30.697 5.605,9.334 16.745,14.432 27.469,12.265 C -8.848,23.542 -0.076,12.461 0,0 0.012,-1.93 3.012,-1.934 3,0 2.925,12.243 -4.673,23.411 -16.175,27.724 c -11.46,4.297 -24.853,0.567 -32.539,-8.921 -7.787,-9.612 -8.884,-23.432 -2.491,-34.079 6.327,-10.537 18.802,-16.079 30.856,-13.643 C -8.582,-26.542 0.794,-16.582 2.616,-4.74 2.857,-3.167 2.991,-1.59 3,0 3.012,1.931 0.012,1.933 0,0" />
              </g>
              <g
                 id="g74"
                 transform="translate(181.4238,254.8799)">
                <path
                   id="path72"
                   style="fill:#1a1a1a;fill-opacity:1;fill-rule:nonzero;stroke:none"
                   d="m 0,0 c 0,-2.892 0,-5.783 0,-8.675 v -6.396 c 0,-1.185 -0.237,-2.652 0,-3.817 0.035,-0.168 -0.097,-0.57 0.102,0.176 0.212,0.796 0.126,0.336 0.016,0.234 -0.228,-0.211 -0.393,-0.645 -0.553,-0.909 -0.768,-1.26 -1.535,-2.521 -2.302,-3.782 -2.231,-3.666 -4.463,-7.332 -6.694,-10.998 -1.479,-2.432 -2.958,-4.862 -4.438,-7.293 -0.368,-0.605 -0.195,-1.311 0.235,-1.817 l 5.278,-6.226 c 1.25,-1.476 3.363,0.656 2.121,2.121 l -5.278,6.226 c 0.078,-0.606 0.157,-1.212 0.235,-1.818 3.487,5.731 6.975,11.462 10.464,17.193 l 2.614,4.298 c 0.369,0.605 0.953,1.293 1.147,1.993 0.241,0.873 0.053,1.999 0.053,2.885 v 6.065 C 3,-7.026 3,-3.514 3,0 3,1.93 0,1.934 0,0" />
              </g>
              <g
                 id="g78"
                 transform="translate(199.231,259.3174)">
                <path
                   id="path76"
                   style="fill:#1a1a1a;fill-opacity:1;fill-rule:nonzero;stroke:none"
                   d="m 0,0 c 3.599,-5.703 7.198,-11.407 10.796,-17.111 2.535,-4.016 5.068,-8.033 7.602,-12.049 1.274,-2.02 2.482,-4.106 3.833,-6.075 0.813,-1.185 2.107,-1.901 3.571,-1.629 1.267,0.235 1.972,1.113 2.706,2.067 1.327,1.725 2.654,3.449 3.98,5.175 0.498,0.646 0.095,1.673 -0.538,2.052 -0.768,0.46 -1.56,0.1 -2.052,-0.538 -1.087,-1.413 -2.174,-2.828 -3.261,-4.241 -0.5,-0.649 -1.157,-2.144 -1.903,-1.233 -0.527,0.644 -0.923,1.464 -1.366,2.166 l -2.589,4.102 c -4.793,7.598 -9.587,15.196 -14.381,22.793 L 2.591,1.515 C 1.563,3.144 -1.034,1.64 0,0" />
              </g>
              <g
                 id="g82"
                 transform="translate(189.2046,297.6431)">
                <path
                   id="path80"
                   style="fill:#1a1a1a;fill-opacity:1;fill-rule:nonzero;stroke:none"
                   d="m 0,0 c 5.571,-3.854 11.142,-7.708 16.713,-11.563 0.493,-0.341 1.429,-0.25 1.817,0.235 4.356,5.44 8.711,10.881 13.067,16.321 0.629,0.786 1.258,1.571 1.887,2.357 1.195,1.493 -0.914,3.629 -2.121,2.122 L 18.296,-6.85 c -0.629,-0.785 -1.258,-1.571 -1.887,-2.357 l 1.818,0.235 C 12.656,-5.118 7.085,-1.264 1.514,2.591 -0.078,3.692 -1.579,1.093 0,0" />
              </g>
              <g
                 id="g86"
                 transform="translate(173.5693,300.0547)">
                <path
                   id="path84"
                   style="fill:#1a1a1a;fill-opacity:1;fill-rule:nonzero;stroke:none"
                   d="m 0,0 -12.234,-10.261 c -1.86,-1.56 -3.823,-3.05 -5.604,-4.7 -0.527,-0.488 -0.681,-1.031 -0.696,-1.733 -0.027,-1.302 0,-2.607 0,-3.909 v -8.975 c 0,-1.931 3,-1.934 3,0 v 13.341 l -0.439,-1.06 c 5.272,4.422 10.545,8.844 15.818,13.266 0.759,0.637 1.517,1.273 2.276,1.91 C 3.602,-0.879 1.47,1.233 0,0" />
              </g>
              <g
                 id="g90"
                 transform="translate(220.1279,307.833)">
                <path
                   id="path88"
                   style="fill:#1a1a1a;fill-opacity:1;fill-rule:nonzero;stroke:none"
                   d="m 0,0 c -0.001,-0.1 -0.009,-0.198 -0.012,-0.297 -0.009,-0.277 -0.006,0.094 0.018,0.109 -0.046,-0.028 -0.085,-0.387 -0.109,-0.466 -0.01,-0.034 -0.106,-0.241 -0.093,-0.267 -0.013,0.026 0.165,0.332 0.037,0.101 -0.091,-0.164 -0.182,-0.321 -0.283,-0.479 -0.165,-0.26 0.187,0.174 0.037,0.048 -0.056,-0.048 -0.102,-0.118 -0.154,-0.171 -0.082,-0.085 -0.301,-0.213 -0.34,-0.31 0.06,0.147 0.235,0.163 0.081,0.07 -0.079,-0.047 -0.155,-0.1 -0.235,-0.146 -0.053,-0.03 -0.11,-0.056 -0.163,-0.087 -0.248,-0.145 0.326,0.095 -0.027,-0.013 -0.151,-0.047 -0.299,-0.096 -0.454,-0.129 -0.259,-0.054 -0.048,0.07 0.068,10e-4 -0.036,0.021 -0.193,-0.016 -0.242,-0.019 -0.164,-0.007 -0.325,0.006 -0.489,0.014 -0.216,0.011 0.384,-0.078 0.066,-0.005 -0.093,0.021 -0.185,0.04 -0.276,0.066 -0.091,0.025 -0.179,0.058 -0.268,0.087 -0.201,0.066 0.075,0.036 0.101,-0.043 -0.018,0.055 -0.335,0.179 -0.405,0.224 -0.062,0.04 -0.214,0.212 -0.074,0.042 0.152,-0.185 -0.022,0.021 -0.063,0.057 -0.062,0.055 -0.324,0.393 -0.383,0.397 0.086,-0.006 0.179,-0.258 0.067,-0.083 -0.05,0.078 -0.103,0.153 -0.151,0.234 -0.031,0.053 -0.062,0.107 -0.09,0.162 -0.014,0.028 -0.028,0.056 -0.042,0.083 -0.068,0.146 -0.055,0.112 0.037,-0.101 0.028,0.065 -0.124,0.373 -0.144,0.451 -0.015,0.062 -0.027,0.124 -0.041,0.187 -0.066,0.297 0.025,-0.355 -0.002,0.035 -0.011,0.149 -0.012,0.298 -0.004,0.446 0.009,0.154 0.109,0.34 -0.011,-0.011 0.019,0.057 0.023,0.13 0.036,0.19 0.035,0.156 0.086,0.304 0.133,0.456 0.097,0.313 -0.165,-0.298 -0.004,-0.014 0.045,0.081 0.085,0.166 0.132,0.246 0.039,0.067 0.084,0.13 0.125,0.196 0.14,0.229 0.071,-0.037 -0.041,-0.045 0.045,0.003 0.273,0.296 0.315,0.335 0.055,0.052 0.121,0.097 0.174,0.152 0.137,0.142 -0.311,-0.199 -0.046,-0.042 0.076,0.046 0.47,0.224 0.482,0.275 -0.005,-0.021 -0.356,-0.128 -0.101,-0.044 0.089,0.03 0.177,0.062 0.268,0.088 0.06,0.017 0.122,0.033 0.183,0.046 0.052,0.012 0.34,0.031 0.083,0.023 -0.271,-0.007 0.05,10e-4 0.089,0.003 0.082,0.005 0.164,0.006 0.246,0.005 0.081,-10e-4 0.162,-0.009 0.244,-0.012 0.319,-0.011 -0.302,0.073 -0.018,10e-4 0.184,-0.047 0.363,-0.095 0.544,-0.154 0.294,-0.096 -0.217,0.14 -0.059,0.023 0.083,-0.061 0.196,-0.1 0.285,-0.154 0.052,-0.032 0.102,-0.069 0.155,-0.1 0.129,-0.092 0.102,-0.068 -0.081,0.071 0.048,-0.039 0.095,-0.078 0.141,-0.119 0.115,-0.102 0.216,-0.217 0.323,-0.327 0.226,-0.231 -0.18,0.286 -0.007,0.013 0.05,-0.079 0.104,-0.153 0.151,-0.234 0.047,-0.08 0.087,-0.164 0.132,-0.246 C -0.02,0.57 -0.255,1.128 -0.163,0.833 -0.105,0.649 -0.057,0.47 -0.011,0.283 0.041,0.072 -0.085,0.324 -0.021,0.394 -0.051,0.362 0,0.055 0,0 0.011,-0.784 0.682,-1.537 1.5,-1.5 2.304,-1.464 3.011,-0.841 3,0 2.971,2.157 1.647,4.006 -0.358,4.768 -2.231,5.479 -4.547,4.851 -5.812,3.301 -7.169,1.64 -7.446,-0.701 -6.336,-2.58 -5.232,-4.448 -3.097,-5.331 -0.993,-4.948 1.341,-4.523 2.969,-2.306 3,0 3.011,0.785 2.303,1.536 1.5,1.5 0.678,1.463 0.011,0.841 0,0" />
              </g>
              <g
                 id="g94"
                 transform="translate(161.6328,270.0322)">
                <path
                   id="path92"
                   style="fill:#1a1a1a;fill-opacity:1;fill-rule:nonzero;stroke:none"
                   d="m 0,0 c -0.001,-0.1 -0.009,-0.198 -0.012,-0.297 -0.009,-0.277 -0.006,0.094 0.018,0.109 -0.046,-0.028 -0.085,-0.387 -0.109,-0.466 -0.01,-0.034 -0.106,-0.241 -0.093,-0.267 -0.013,0.025 0.165,0.332 0.037,0.101 -0.091,-0.164 -0.182,-0.321 -0.283,-0.479 -0.165,-0.26 0.187,0.174 0.037,0.048 -0.056,-0.048 -0.102,-0.118 -0.154,-0.172 -0.082,-0.084 -0.301,-0.213 -0.34,-0.309 0.06,0.146 0.235,0.163 0.081,0.07 -0.079,-0.047 -0.155,-0.101 -0.235,-0.147 -0.053,-0.03 -0.11,-0.055 -0.163,-0.087 -0.248,-0.144 0.326,0.095 -0.027,-0.012 -0.151,-0.047 -0.299,-0.096 -0.454,-0.129 -0.259,-0.054 -0.048,0.07 0.068,10e-4 -0.036,0.021 -0.193,-0.017 -0.242,-0.019 -0.165,-0.007 -0.325,0.005 -0.489,0.014 -0.216,0.011 0.384,-0.078 0.066,-0.006 -0.093,0.022 -0.185,0.041 -0.276,0.067 -0.091,0.025 -0.179,0.058 -0.268,0.087 -0.201,0.066 0.075,0.036 0.101,-0.043 -0.018,0.055 -0.335,0.178 -0.405,0.223 -0.062,0.04 -0.214,0.213 -0.074,0.042 0.152,-0.184 -0.023,0.022 -0.063,0.058 -0.062,0.055 -0.324,0.392 -0.383,0.397 0.086,-0.007 0.179,-0.258 0.067,-0.083 -0.05,0.078 -0.103,0.153 -0.151,0.234 -0.031,0.052 -0.062,0.107 -0.09,0.162 -0.014,0.028 -0.028,0.055 -0.042,0.083 -0.068,0.146 -0.055,0.112 0.037,-0.101 0.028,0.065 -0.124,0.373 -0.144,0.45 -0.015,0.063 -0.027,0.125 -0.041,0.188 -0.066,0.297 0.024,-0.355 -0.002,0.035 -0.011,0.148 -0.012,0.298 -0.004,0.446 0.009,0.154 0.109,0.34 -0.011,-0.011 0.019,0.056 0.023,0.13 0.036,0.19 0.034,0.155 0.086,0.304 0.133,0.455 0.097,0.314 -0.165,-0.298 -0.004,-0.013 0.045,0.081 0.085,0.165 0.132,0.246 0.039,0.067 0.084,0.129 0.125,0.196 0.14,0.228 0.071,-0.037 -0.041,-0.045 0.045,0.003 0.273,0.296 0.315,0.335 0.055,0.052 0.121,0.097 0.174,0.151 0.137,0.143 -0.311,-0.198 -0.046,-0.041 0.076,0.045 0.47,0.224 0.482,0.275 -0.005,-0.022 -0.356,-0.128 -0.101,-0.044 0.089,0.03 0.177,0.062 0.268,0.087 0.06,0.018 0.122,0.034 0.183,0.047 0.052,0.012 0.34,0.031 0.083,0.023 -0.271,-0.007 0.05,10e-4 0.089,0.003 0.082,0.005 0.164,0.006 0.246,0.005 0.081,-10e-4 0.162,-0.009 0.244,-0.012 0.319,-0.011 -0.302,0.073 -0.018,10e-4 0.184,-0.047 0.363,-0.095 0.544,-0.154 0.294,-0.096 -0.217,0.139 -0.059,0.023 0.083,-0.061 0.195,-0.101 0.285,-0.154 0.052,-0.032 0.102,-0.069 0.155,-0.1 0.129,-0.092 0.102,-0.068 -0.081,0.07 0.048,-0.038 0.095,-0.078 0.141,-0.118 0.115,-0.102 0.216,-0.217 0.323,-0.327 0.226,-0.231 -0.18,0.285 -0.007,0.013 C -0.392,1.22 -0.338,1.146 -0.291,1.065 -0.244,0.984 -0.204,0.9 -0.159,0.819 -0.02,0.569 -0.255,1.128 -0.163,0.832 -0.105,0.648 -0.057,0.47 -0.011,0.282 0.041,0.072 -0.085,0.324 -0.021,0.394 -0.051,0.361 0,0.055 0,0 0.011,-0.784 0.682,-1.537 1.5,-1.5 2.304,-1.465 3.011,-0.841 3,0 2.971,2.156 1.647,4.007 -0.358,4.768 -2.231,5.479 -4.547,4.851 -5.812,3.301 -7.169,1.64 -7.446,-0.701 -6.336,-2.58 -5.232,-4.448 -3.097,-5.331 -0.993,-4.948 1.341,-4.523 2.969,-2.307 3,0 3.011,0.784 2.302,1.535 1.5,1.5 0.678,1.463 0.011,0.841 0,0" />
              </g>
              <g
                 id="g98"
                 transform="translate(194.166,327.7031)">
                <path
                   id="path96"
                   style="fill:#1a1a1a;fill-opacity:1;fill-rule:nonzero;stroke:none"
                   d="m 0,0 c 1.292,-1.368 3.057,-2.376 4.803,-3.024 3.73,-1.383 7.731,-0.487 10.889,1.813 0.654,0.476 0.976,1.303 0.538,2.052 C 15.853,1.487 14.836,1.859 14.178,1.379 12.78,0.362 11.089,-0.497 9.454,-0.662 7.976,-0.812 6.881,-0.605 5.463,-0.08 5.144,0.04 5.458,-0.087 5.229,0.019 5.104,0.076 4.979,0.135 4.855,0.196 4.603,0.322 4.355,0.457 4.112,0.601 3.696,0.846 3.3,1.12 2.912,1.406 2.831,1.466 3.166,1.192 2.895,1.423 2.834,1.475 2.771,1.525 2.71,1.577 2.603,1.667 2.498,1.76 2.394,1.856 2.301,1.942 2.208,2.029 2.121,2.121 0.792,3.527 -1.326,1.403 0,0" />
              </g>
              <g
                 id="g102"
                 transform="translate(160.8926,200.0986)">
                <path
                   id="path100"
                   style="fill:#1a1a1a;fill-opacity:1;fill-rule:nonzero;stroke:none"
                   d="m 0,0 c 1.974,0.665 3.947,1.33 5.92,1.995 5.371,1.811 10.742,3.621 16.112,5.431 l 23.833,8.033 c 9.732,3.28 19.464,6.561 29.195,9.84 10.622,3.581 21.244,7.161 31.866,10.741 10.721,3.613 21.443,7.227 32.164,10.841 l 29.99,10.107 c 8.448,2.848 16.896,5.696 25.345,8.543 6.075,2.048 12.152,4.096 18.228,6.144 2.879,0.971 5.772,1.909 8.64,2.912 0.124,0.044 0.249,0.084 0.373,0.126 1.82,0.613 1.039,3.512 -0.798,2.892 L 214.949,75.61 C 209.578,73.8 204.207,71.99 198.836,70.18 L 175.003,62.146 C 165.272,58.867 155.54,55.587 145.809,52.307 L 113.942,41.566 C 103.221,37.952 92.5,34.339 81.779,30.726 71.782,27.356 61.786,23.986 51.789,20.617 43.34,17.77 34.892,14.922 26.444,12.075 20.368,10.027 14.292,7.979 8.216,5.931 5.336,4.961 2.443,4.022 -0.425,3.019 -0.548,2.976 -0.673,2.935 -0.797,2.894 -2.617,2.279 -1.836,-0.619 0,0" />
              </g>
              <g
                 id="g106"
                 transform="translate(192.917,348.9697)">
                <path
                   id="path104"
                   style="fill:#1a1a1a;fill-opacity:1;fill-rule:nonzero;stroke:none"
                   d="m 0,0 c 0.228,-0.187 0.433,-0.407 0.631,-0.625 0.102,-0.113 0.202,-0.229 0.301,-0.346 0.064,-0.077 0.127,-0.155 0.19,-0.234 0.111,-0.136 -0.11,0.156 0.077,-0.1 0.272,-0.372 0.532,-0.751 0.773,-1.145 1.544,-2.521 2.365,-5.436 2.673,-8.376 0.063,-0.604 0.472,-1.125 1.125,-1.125 0.559,0 1.188,0.517 1.125,1.125 -0.345,3.293 -1.202,6.563 -2.923,9.417 -0.641,1.064 -1.41,2.201 -2.381,3 C 1.123,1.977 0.459,2.05 0,1.591 -0.397,1.193 -0.471,0.388 0,0" />
              </g>
            </g>
          </g>
        </g>
      </g>
    </g>
  </g>
</svg>
